<svg width="25" height="20" viewBox="0 0 25 20" fill="none" xmlns="http://www.w3.org/2000/svg">
<g id="Group">
<path id="Vector" d="M12.9264 18.6047C12.2773 19.4349 11.2663 19.9451 10.1732 19.9958C9.08015 20.047 8.02148 19.6319 7.28906 18.8656L0.725613 12.0035C-0.317525 10.9135 -0.224863 9.23342 0.932021 8.25065C2.09002 7.26788 3.87223 7.3557 4.91537 8.44616L9.559 13.3014C9.6278 13.3736 9.72767 13.4123 9.83032 13.4076C9.93353 13.4029 10.0279 13.3542 10.0894 13.2769L19.6342 1.08063C20.558 -0.10078 22.3236 -0.352222 23.5781 0.518677C24.8315 1.38958 25.0979 3.05296 24.1735 4.23385L12.9264 18.6047Z" fill="#6F7B20"/>
</g>
</svg>
