<svg width="36" height="36" viewBox="0 0 36 36" fill="none" xmlns="http://www.w3.org/2000/svg">
<g id="Money" clip-path="url(#clip0_187_57802)">
<g id="Group">
<path id="Vector" d="M30.7133 5.28666C27.3042 1.87748 22.7892 0 18 0C13.2108 0 8.69576 1.87748 5.28666 5.28666C1.87748 8.69576 0 13.2108 0 18C0 22.7892 1.87748 27.3042 5.28666 30.7133C8.69576 34.1225 13.2108 36 18 36C22.7892 36 27.3042 34.1225 30.7133 30.7133C34.1225 27.3042 36 22.7892 36 18C36 13.2108 34.1225 8.69576 30.7133 5.28666ZM18 33.8906C9.23787 33.8906 2.10938 26.7621 2.10938 18C2.10938 9.23787 9.23787 2.10938 18 2.10938C26.7621 2.10938 33.8906 9.23787 33.8906 18C33.8906 26.7621 26.7621 33.8906 18 33.8906Z" fill="white"/>
<path id="Vector_2" d="M18 4.28906C10.4398 4.28906 4.28906 10.4398 4.28906 18C4.28906 25.5602 10.4398 31.7109 18 31.7109C25.5602 31.7109 31.7109 25.5602 31.7109 18C31.7109 10.4398 25.5602 4.28906 18 4.28906ZM18 29.6016C11.6029 29.6016 6.39844 24.3971 6.39844 18C6.39844 11.6029 11.6029 6.39844 18 6.39844C24.3971 6.39844 29.6016 11.6029 29.6016 18C29.6016 24.3971 24.3971 29.6016 18 29.6016Z" fill="white"/>
<path id="Vector_3" d="M21.1641 14.8253C21.1641 15.4077 21.6363 15.88 22.2188 15.88C22.8012 15.88 23.2734 15.4077 23.2734 14.8253C23.2734 13.6572 22.6693 12.5342 21.6159 11.7442C20.8964 11.2045 20.0111 10.844 19.0547 10.6907V9.55176C19.0547 8.96929 18.5825 8.49707 18 8.49707C17.4175 8.49707 16.9453 8.96929 16.9453 9.55176V10.6907C15.9889 10.844 15.1035 11.2045 14.3841 11.7442C13.3307 12.5342 12.7266 13.6572 12.7266 14.8253C12.7266 15.9933 13.3307 17.1163 14.3841 17.9064C15.1036 18.446 15.9889 18.8065 16.9453 18.9599V23.137C15.7303 22.8401 14.8359 22.0516 14.8359 21.1534C14.8359 20.5709 14.3637 20.0987 13.7812 20.0987C13.1988 20.0987 12.7266 20.5709 12.7266 21.1534C12.7266 22.3214 13.3307 23.4444 14.3841 24.2345C15.1036 24.7741 15.9889 25.1346 16.9453 25.288V26.4375C16.9453 27.02 17.4175 27.4922 18 27.4922C18.5825 27.4922 19.0547 27.02 19.0547 26.4375V25.288C20.0111 25.1346 20.8965 24.7741 21.6159 24.2345C22.6693 23.4445 23.2734 22.3214 23.2734 21.1534C23.2734 19.9854 22.6693 18.8623 21.6159 18.0723C20.8964 17.5326 20.0111 17.1722 19.0547 17.0188V12.8416C20.2697 13.1386 21.1641 13.927 21.1641 14.8253ZM14.8359 14.8253C14.8359 13.927 15.7303 13.1385 16.9453 12.8416V16.8089C15.7303 16.512 14.8359 15.7235 14.8359 14.8253ZM21.1641 21.1534C21.1641 22.0516 20.2697 22.8401 19.0547 23.137V19.1698C20.2697 19.4667 21.1641 20.2551 21.1641 21.1534Z" fill="white"/>
</g>
</g>
<defs>
<clipPath id="clip0_187_57802">
<rect width="36" height="36" fill="white"/>
</clipPath>
</defs>
</svg>
