<svg width="30" height="30" viewBox="0 0 30 30" fill="none" xmlns="http://www.w3.org/2000/svg">
<g clip-path="url(#clip0_42_53337)">
<path d="M16.6574 15.0003L29.6568 2.00082C30.1144 1.54315 30.1144 0.801117 29.6568 0.3435C29.1991 -0.114116 28.4571 -0.114175 27.9995 0.3435L15 13.343L2.00058 0.3435C1.5429 -0.114175 0.800872 -0.114175 0.343256 0.3435C-0.11436 0.801175 -0.114419 1.54321 0.343256 2.00082L13.3427 15.0002L0.343256 27.9997C-0.114419 28.4574 -0.114419 29.1994 0.343256 29.657C0.572064 29.8858 0.872005 30.0002 1.17195 30.0002C1.47189 30.0002 1.77177 29.8858 2.00064 29.657L15 16.6576L27.9994 29.657C28.2282 29.8858 28.5281 30.0002 28.8281 30.0002C29.128 30.0002 29.4279 29.8858 29.6568 29.657C30.1144 29.1993 30.1144 28.4573 29.6568 27.9997L16.6574 15.0003Z" fill="black"/>
</g>
<defs>
<clipPath id="clip0_42_53337">
<rect width="30" height="30" fill="white"/>
</clipPath>
</defs>
</svg>
